<?xml version="1.0" standalone="no"?>
<!DOCTYPE svg PUBLIC "-//W3C//DTD SVG 20010904//EN"
 "http://www.w3.org/TR/2001/REC-SVG-20010904/DTD/svg10.dtd">
<svg version="1.0" xmlns="http://www.w3.org/2000/svg"
 width="512.000000pt" height="512.000000pt" viewBox="0 0 512.000000 512.000000"
 preserveAspectRatio="xMidYMid meet">

<g transform="translate(0.000000,512.000000) scale(0.100000,-0.100000)"
fill="#000000" stroke="none">
<path d="M2330 4714 c-193 -23 -431 -78 -595 -139 -100 -37 -361 -160 -445
-211 l-46 -27 -79 46 c-106 62 -234 112 -358 142 -104 25 -318 48 -356 38 -44
-11 -165 -219 -220 -376 -55 -157 -74 -273 -74 -452 0 -168 18 -288 63 -419
l20 -58 -39 -82 c-82 -172 -142 -362 -178 -556 -26 -144 -23 -412 6 -550 112
-531 459 -972 1011 -1287 335 -191 733 -318 1156 -368 187 -23 541 -23 728 0
1026 122 1860 694 2111 1449 61 183 78 289 79 486 0 285 -60 542 -195 826
l-39 82 20 58 c45 131 63 251 63 419 0 179 -19 295 -74 452 -55 157 -176 365
-220 376 -38 10 -252 -13 -356 -38 -124 -30 -252 -80 -358 -142 l-79 -46 -46
27 c-84 51 -345 174 -444 211 -123 45 -285 88 -436 116 -91 17 -163 22 -350
24 -129 2 -251 1 -270 -1z m589 -144 c720 -125 1357 -566 1766 -1220 24 -38
13 -30 -69 52 -341 340 -840 579 -1417 678 -402 69 -876 69 -1278 0 -577 -99
-1076 -338 -1417 -678 -82 -82 -93 -90 -69 -52 145 232 302 417 517 611 388
349 877 571 1383 629 134 15 443 4 584 -20z m-2239 -145 c52 -9 142 -32 199
-51 114 -38 247 -103 234 -114 -4 -5 -53 -43 -108 -85 -55 -43 -134 -109 -176
-146 l-76 -68 -121 235 c-67 129 -122 237 -122 239 0 10 77 5 170 -10z m3930
10 c0 -2 -55 -110 -122 -239 l-121 -235 -69 62 c-38 34 -118 100 -178 147 -60
47 -111 88 -115 91 -10 11 129 78 237 114 58 19 143 41 189 49 84 14 179 20
179 11z m-2435 -1285 c281 -281 365 -360 385 -360 19 0 104 79 385 360 l360
360 121 -24 c269 -55 438 -109 633 -202 393 -188 634 -450 721 -784 31 -119
39 -348 16 -490 -100 -629 -665 -1166 -1465 -1391 -472 -132 -1070 -132 -1542
0 -800 225 -1365 762 -1465 1391 -23 142 -15 371 16 490 28 110 94 250 164
349 191 270 586 499 1046 605 123 28 239 53 255 55 6 1 172 -161 370 -359z"/>
<path d="M1610 2569 c-77 -12 -171 -38 -197 -55 -28 -17 -31 -65 -6 -89 18
-19 23 -18 186 16 99 21 116 22 190 11 91 -13 186 -54 229 -99 15 -15 44 -59
65 -98 32 -58 43 -71 67 -73 34 -4 66 22 66 56 0 40 -61 143 -117 199 -61 60
-155 109 -233 122 -90 15 -191 19 -250 10z"/>
<path d="M3329 2569 c-48 -5 -112 -18 -143 -29 -66 -25 -160 -92 -197 -141
-37 -49 -79 -134 -79 -162 0 -33 32 -59 66 -55 24 2 35 15 67 73 21 39 50 83
65 98 43 45 138 86 229 99 74 11 91 10 190 -11 163 -34 168 -35 186 -16 25 24
22 72 -5 89 -38 24 -246 71 -285 65 -4 -1 -47 -5 -94 -10z"/>
<path d="M1775 1874 c-83 -16 -110 -40 -101 -89 22 -112 186 -192 496 -243
136 -22 618 -24 755 -3 317 47 496 130 520 241 14 65 -30 90 -185 107 -70 7
-78 -2 -99 -105 l-16 -76 -50 -13 c-152 -40 -236 -47 -535 -47 -299 0 -383 7
-535 47 l-50 13 -16 76 c-8 42 -21 84 -28 92 -16 19 -60 19 -156 0z"/>
</g>
</svg>
